<svg width="15" height="29" fill="none" xmlns="http://www.w3.org/2000/svg"><path fill-rule="evenodd" clip-rule="evenodd" d="M5.96 2.365C7.147.99 8.78.2 10.5.2H14a.55.55 0 01.55.55v5.393a.55.55 0 01-.55.55h-3.5a.544.544 0 00-.409.205.912.912 0 00-.208.593v3.495H14a.55.55 0 01.538.666l-1.167 5.394a.55.55 0 01-.538.433h-2.95v10.236a.55.55 0 01-.55.55H4.667a.55.55 0 01-.55-.55V17.48h-2.95a.55.55 0 01-.55-.55v-5.393a.55.55 0 01.55-.55h2.95V7.491c0-1.91.656-3.755 1.842-5.126zM10.5 1.3c-1.373 0-2.71.63-3.709 1.785C5.79 4.242 5.217 5.825 5.217 7.49v4.045a.55.55 0 01-.55.55h-2.95v4.293h2.95a.55.55 0 01.55.55v10.236h3.566V16.93a.55.55 0 01.55-.55h3.057l.928-4.293H9.333a.55.55 0 01-.55-.55V7.491c0-.48.165-.953.476-1.313a1.643 1.643 0 011.241-.585h2.95V1.3H10.5z" fill="#666"/></svg>