<svg width="28" height="18" fill="none" xmlns="http://www.w3.org/2000/svg"><g clip-path="url(#clip0)"><path d="M.088 2.49c0-.855.534-1.316 1.6-1.384l4.113.026c.275 0 .46.125.551.377.424 1.257.897 2.343 1.422 3.257.524.913 1.21 1.965 2.055 3.156.074.15.194.226.36.226a.343.343 0 00.303-.176l.082-.277.028-4.35c0-.302-.078-.503-.235-.604-.156-.1-.446-.176-.869-.226-.33-.05-.496-.235-.496-.553 0-.068.009-.118.027-.151C9.415.72 10.52.176 12.341.176l1.545-.025c.699 0 1.278.16 1.738.478.46.318.69.821.69 1.509v5.708a.669.669 0 00.359.126c.276 0 .515-.151.717-.453 2.024-2.582 3.119-4.308 3.284-5.18 0-.017.018-.059.055-.126.13-.251.34-.47.635-.654.294-.184.552-.31.773-.377a.593.593 0 01.248-.05h4.277l.276.025c.368 0 .653.16.856.478.073.1.124.21.151.327.028.117.046.234.055.352.01.117.014.184.014.2v.177c-.128.687-.455 1.42-.98 2.2-.524.78-1.19 1.622-2 2.528-.81.905-1.315 1.5-1.518 1.785-.165.201-.248.386-.248.553 0 .135.074.285.22.453l4.03 4.627c.22.268.33.562.33.88 0 .386-.165.705-.496.956a2.177 2.177 0 01-1.186.428l-.47.025h-4.194a.92.92 0 00-.11.012.924.924 0 01-.11.013c-.405 0-.783-.16-1.132-.478-.129-.134-.994-1.123-2.594-2.967a1.422 1.422 0 00-.386-.327c-.074.268-.17.654-.29 1.157-.12.503-.207.863-.262 1.08l-.083.428c-.184.587-.57.94-1.16 1.057l-.385.025h-2.705c-1.527 0-3.049-.637-4.567-1.912-1.517-1.274-2.883-2.92-4.097-4.941C2.406 8.253 1.275 5.9.226 3.219a1.858 1.858 0 01-.138-.73zm16.585 6.513c-.386 0-.736-.096-1.049-.29-.313-.192-.469-.456-.469-.791V2.138c0-.336-.092-.575-.276-.717-.184-.143-.506-.214-.966-.214l-1.572.05c-.792 0-1.39.126-1.794.378.81.352 1.214.922 1.214 1.71V7.77c-.037.419-.22.767-.552 1.043a1.68 1.68 0 01-1.104.415c-.552 0-.975-.243-1.27-.729-1.434-1.978-2.501-3.856-3.2-5.633l-.248-.654-3.67-.025c-.24 0-.373.012-.4.038-.028.025-.042.096-.042.213 0 .151.018.31.055.478l.58 1.408c1.545 3.638 3.224 6.505 5.036 8.601 1.812 2.096 3.592 3.144 5.34 3.144h2.759c.11 0 .193-.03.248-.088.055-.06.101-.172.138-.34l.055-.252.525-2.213c.147-.301.276-.502.386-.603a1.03 1.03 0 01.717-.277c.442 0 .893.243 1.352.73l2.346 2.716c.147.217.304.327.47.327h4.552c.552 0 .828-.126.828-.378a.455.455 0 00-.083-.251l-4-4.552c-.314-.352-.47-.73-.47-1.132 0-.402.147-.788.441-1.156.24-.336.704-.893 1.394-1.673s1.292-1.509 1.808-2.188c.515-.679.855-1.295 1.02-1.848l.083-.327a.359.359 0 01-.027-.163.554.554 0 00-.028-.189h-4.332c-.276.1-.497.251-.663.453l-.165.477C21.18 4.3 19.975 6.086 18.025 8.5a1.999 1.999 0 01-1.352.503z" fill="#666"/></g><defs><clipPath id="clip0"><path fill="#fff" d="M0 0h28v18H0z"/></clipPath></defs></svg>