<?xml version="1.0" encoding="utf-8"?>
<svg viewBox="0 0 280 280" xmlns="http://www.w3.org/2000/svg" xmlns:xlink="http://www.w3.org/1999/xlink">
  <style>
    :root > svg {
      display: none;
    }

    :root > svg:target {
      display: block;
    }
  </style>

  <svg id="vk" viewBox="0 0 28 28"><path d="M.085 8.49c0-.855.515-1.316 1.546-1.383l3.97.025a.52.52 0 01.532.377c.409 1.258.866 2.343 1.372 3.257.507.914 1.168 1.966 1.985 3.156.071.15.187.226.347.226.124 0 .222-.059.293-.176l.08-.277.026-4.35c0-.302-.075-.503-.226-.604-.151-.1-.43-.176-.84-.226-.319-.05-.479-.235-.479-.553 0-.067.009-.118.027-.151.373-1.09 1.438-1.635 3.197-1.635l1.492-.025c.675 0 1.234.16 1.678.478.444.318.667.821.667 1.509v5.708a.63.63 0 00.346.126c.266 0 .497-.15.693-.452 1.953-2.582 3.01-4.31 3.17-5.181 0-.017.018-.059.054-.126.124-.251.328-.47.612-.654.285-.184.533-.31.746-.377a.555.555 0 01.24-.05h4.13l.266.025c.355 0 .63.16.826.478.071.1.12.21.147.327.026.117.044.234.053.352.009.117.013.184.013.201v.176c-.124.687-.44 1.42-.945 2.2-.507.78-1.15 1.623-1.932 2.528s-1.27 1.5-1.466 1.785c-.16.202-.24.386-.24.554 0 .134.072.285.214.452l3.89 4.627c.213.269.32.562.32.88 0 .386-.16.705-.48.956-.32.252-.702.394-1.146.428l-.453.025h-4.05a.875.875 0 00-.106.012.862.862 0 01-.107.013c-.39 0-.755-.16-1.092-.478-.124-.134-.96-1.123-2.504-2.967a1.384 1.384 0 00-.373-.327c-.072.268-.165.654-.28 1.157-.116.503-.2.863-.253 1.081l-.08.428c-.178.586-.55.938-1.12 1.056l-.372.025h-2.611c-1.475 0-2.944-.637-4.41-1.911-1.465-1.274-2.784-2.922-3.956-4.942C2.323 14.253 1.23 11.902.219 9.22a1.916 1.916 0 01-.134-.73zm16.013 6.513c-.373 0-.71-.096-1.012-.289-.303-.193-.454-.457-.454-.792V8.138c0-.335-.088-.574-.266-.717-.178-.142-.488-.214-.932-.214l-1.52.05c-.763 0-1.34.126-1.73.378.78.352 1.171.922 1.171 1.71v4.426a1.5 1.5 0 01-.532 1.044 1.59 1.59 0 01-1.066.415c-.533 0-.942-.244-1.226-.73-1.385-1.978-2.415-3.856-3.09-5.633l-.24-.654-3.544-.025c-.23 0-.36.013-.386.038-.027.025-.04.096-.04.214 0 .15.018.31.053.477l.56 1.409c1.492 3.638 3.113 6.505 4.862 8.6 1.75 2.096 3.468 3.144 5.156 3.144h2.664c.107 0 .187-.03.24-.088.053-.059.097-.172.133-.34l.053-.251.507-2.213c.142-.302.266-.503.373-.604a.976.976 0 01.692-.276c.427 0 .862.243 1.306.729l2.264 2.716c.142.218.293.327.453.327h4.396c.533 0 .8-.126.8-.378a.465.465 0 00-.08-.25L21.8 16.888c-.302-.352-.453-.729-.453-1.131 0-.403.142-.788.426-1.157.23-.336.68-.893 1.345-1.673a37.63 37.63 0 001.745-2.187c.498-.68.826-1.296.986-1.849l.08-.327a.37.37 0 01-.026-.163.574.574 0 00-.027-.189h-4.183c-.266.1-.48.252-.64.453l-.16.478c-.443 1.156-1.607 2.942-3.49 5.356a1.892 1.892 0 01-1.305.503z"/></svg>
  <svg id="insta" viewBox="0 0 28 28"><path d="M13.98 4.078c1.667 0 3.028.02 4.082.059.899.039 1.7.195 2.403.468.677.26 1.263.638 1.758 1.133.494.495.872 1.081 1.133 1.758.273.703.43 1.504.468 2.402.04 1.055.059 2.416.059 4.082 0 1.667-.02 3.028-.059 4.082-.039.899-.195 1.7-.469 2.403a4.985 4.985 0 01-1.132 1.758 4.985 4.985 0 01-1.758 1.133c-.703.273-1.504.43-2.402.468-1.055.04-2.416.059-4.082.059-1.667 0-3.028-.02-4.083-.059-.898-.039-1.699-.195-2.402-.469a4.985 4.985 0 01-1.758-1.132 4.984 4.984 0 01-1.133-1.758c-.273-.703-.43-1.504-.468-2.402a114.67 114.67 0 01-.059-4.082c0-1.667.02-3.028.059-4.083.039-.898.195-1.699.468-2.402a4.984 4.984 0 011.133-1.758 4.984 4.984 0 011.758-1.133C8.2 4.332 9 4.175 9.898 4.137c1.055-.04 2.416-.059 4.082-.059zm0 1.29c-1.731 0-3.144.019-4.238.058a6.27 6.27 0 00-1.953.37A3.566 3.566 0 005.797 7.79a6.27 6.27 0 00-.371 1.953c-.04 1.094-.059 2.507-.059 4.238 0 1.732.02 3.145.059 4.239a6.27 6.27 0 00.37 1.953 3.566 3.566 0 001.993 1.992c.599.221 1.25.345 1.953.371 1.094.04 2.507.059 4.238.059 1.732 0 3.145-.02 4.239-.059a6.274 6.274 0 001.953-.37 3.567 3.567 0 001.992-1.993c.221-.6.345-1.25.371-1.953.04-1.094.059-2.507.059-4.239 0-1.731-.02-3.144-.059-4.238a6.273 6.273 0 00-.37-1.953 3.566 3.566 0 00-1.993-1.992 6.27 6.27 0 00-1.953-.371c-1.094-.04-2.507-.059-4.239-.059zm0 12.577c1.094 0 2.029-.387 2.803-1.162.775-.774 1.162-1.709 1.162-2.803 0-1.093-.387-2.027-1.162-2.802-.774-.775-1.709-1.162-2.803-1.162-1.093 0-2.027.387-2.802 1.162-.775.774-1.162 1.709-1.162 2.802 0 1.094.387 2.029 1.162 2.803.774.775 1.709 1.162 2.802 1.162zm0-9.043c1.407 0 2.605.495 3.594 1.485.99.99 1.485 2.187 1.485 3.593 0 1.407-.495 2.605-1.485 3.594-.99.99-2.187 1.485-3.594 1.485-1.406 0-2.604-.495-3.593-1.485-.99-.99-1.485-2.187-1.485-3.594 0-1.406.495-2.604 1.485-3.593.99-.99 2.187-1.485 3.593-1.485zm6.485-.195c0 .326-.117.602-.352.83-.234.228-.52.342-.86.342a1.13 1.13 0 01-.83-.342 1.13 1.13 0 01-.341-.83c0-.339.114-.625.342-.86.228-.234.504-.35.83-.35.325 0 .609.12.85.36.24.241.36.525.36.85z"/></svg>
  <svg id="fb" viewBox="0 0 28 28"><path fill-rule="evenodd" clip-rule="evenodd" d="M13.124 5.757a5.18 5.18 0 013.626-1.474h2.75a.55.55 0 01.55.55V8.43a.55.55 0 01-.55.55h-2.75c-.1 0-.195.039-.263.106a.34.34 0 00-.104.242v2.147H19.5a.55.55 0 01.533.686l-.917 3.595a.55.55 0 01-.533.414h-2.2v6.64a.55.55 0 01-.55.55h-3.666a.55.55 0 01-.55-.55v-6.64h-2.2a.55.55 0 01-.55-.55v-3.595a.55.55 0 01.55-.55h2.2V9.327a5 5 0 011.507-3.57zm3.626-.374a4.08 4.08 0 00-2.856 1.16 3.9 3.9 0 00-1.177 2.784v2.697a.55.55 0 01-.55.55h-2.2v2.495h2.2a.55.55 0 01.55.55v6.64h2.566v-6.64a.55.55 0 01.55-.55h2.323l.636-2.495h-2.959a.55.55 0 01-.55-.55V9.327c0-.387.158-.757.434-1.028.276-.27.647-.42 1.033-.42h2.2V5.383h-2.2z"/></svg>
</svg>
