<svg width="15" height="29" viewBox="0 0 15 29" fill="none" xmlns="http://www.w3.org/2000/svg">
<path fill-rule="evenodd" clip-rule="evenodd" d="M5.95934 2.36478C7.14824 0.990819 8.77928 0.200195 10.5 0.200195H14C14.3038 0.200195 14.55 0.446439 14.55 0.750195V6.14321C14.55 6.44697 14.3038 6.69321 14 6.69321H10.5C10.3643 6.69321 10.2148 6.75487 10.091 6.898C9.96497 7.04362 9.88337 7.25612 9.88337 7.49147V10.9862H14C14.1663 10.9862 14.3237 11.0615 14.4281 11.1909C14.5325 11.3203 14.5728 11.49 14.5376 11.6525L13.3709 17.0455C13.3162 17.2986 13.0923 17.4792 12.8334 17.4792H9.88337V27.7153C9.88337 28.019 9.63712 28.2653 9.33337 28.2653H4.6667C4.36294 28.2653 4.1167 28.019 4.1167 27.7153V17.4792H1.1667C0.862943 17.4792 0.616699 17.233 0.616699 16.9292V11.5362C0.616699 11.2325 0.862943 10.9862 1.1667 10.9862H4.1167V7.49147C4.1167 5.58133 4.77259 3.73624 5.95934 2.36478ZM10.5 1.3002C9.1266 1.3002 7.79017 1.93005 6.79115 3.08456C5.78997 4.24157 5.2167 5.8258 5.2167 7.49147V11.5362C5.2167 11.84 4.97046 12.0862 4.6667 12.0862H1.7167V16.3792H4.6667C4.97046 16.3792 5.2167 16.6255 5.2167 16.9292V27.1653H8.78337V16.9292C8.78337 16.6255 9.02961 16.3792 9.33337 16.3792H12.3896L13.3183 12.0862H9.33337C9.02961 12.0862 8.78337 11.84 8.78337 11.5362V7.49147C8.78337 7.01165 8.94759 6.53829 9.25917 6.17822C9.57291 5.81564 10.017 5.59321 10.5 5.59321H13.45V1.3002H10.5Z" fill="#666666"/>
</svg>
