<svg xmlns="http://www.w3.org/2000/svg" viewBox="0 0 30 30"><path d="M14.98 5.078c1.667 0 3.028.02 4.082.059.899.039 1.7.195 2.403.468.677.26 1.263.638 1.758 1.133a5.007 5.007 0 011.133 1.758c.273.703.43 1.504.468 2.402.04 1.055.059 2.416.059 4.082 0 1.667-.02 3.028-.059 4.082-.039.899-.195 1.7-.469 2.403a4.985 4.985 0 01-1.132 1.758 4.985 4.985 0 01-1.758 1.133c-.703.273-1.504.43-2.402.468-1.055.04-2.416.059-4.082.059-1.667 0-3.028-.02-4.083-.059-.898-.039-1.699-.195-2.402-.469a4.985 4.985 0 01-1.758-1.132 4.984 4.984 0 01-1.133-1.758c-.273-.703-.43-1.504-.468-2.402a114.67 114.67 0 01-.059-4.082c0-1.667.02-3.028.059-4.083.039-.898.195-1.699.468-2.402a4.984 4.984 0 011.133-1.758 4.984 4.984 0 011.758-1.133c.703-.273 1.504-.43 2.402-.468 1.055-.04 2.416-.059 4.082-.059zm0 1.29c-1.731 0-3.144.019-4.238.058a6.27 6.27 0 00-1.953.37A3.566 3.566 0 006.797 8.79a6.27 6.27 0 00-.371 1.953c-.04 1.094-.059 2.507-.059 4.238 0 1.732.02 3.145.059 4.239a6.27 6.27 0 00.37 1.953 3.566 3.566 0 001.993 1.992 6.28 6.28 0 001.953.371c1.094.04 2.507.059 4.238.059 1.732 0 3.145-.02 4.239-.059a6.274 6.274 0 001.953-.37 3.567 3.567 0 001.992-1.993c.221-.6.345-1.25.371-1.953.04-1.094.059-2.507.059-4.239 0-1.731-.02-3.144-.059-4.238a6.274 6.274 0 00-.37-1.953 3.566 3.566 0 00-1.993-1.992 6.27 6.27 0 00-1.953-.371c-1.094-.04-2.507-.059-4.239-.059zm0 12.577a3.817 3.817 0 002.803-1.162 3.817 3.817 0 001.162-2.803c0-1.093-.387-2.027-1.162-2.802a3.817 3.817 0 00-2.803-1.162c-1.093 0-2.027.387-2.802 1.162a3.817 3.817 0 00-1.162 2.802c0 1.094.387 2.029 1.162 2.803a3.817 3.817 0 002.802 1.162zm0-9.043c1.407 0 2.605.495 3.594 1.485.99.99 1.485 2.187 1.485 3.593 0 1.407-.495 2.605-1.485 3.594-.99.99-2.187 1.485-3.594 1.485-1.406 0-2.604-.495-3.593-1.485-.99-.99-1.485-2.187-1.485-3.594 0-1.406.495-2.604 1.485-3.593.99-.99 2.187-1.485 3.593-1.485zm6.485-.195c0 .326-.117.602-.352.83-.234.228-.52.342-.86.342a1.13 1.13 0 01-.83-.342 1.13 1.13 0 01-.341-.83c0-.339.114-.625.342-.86.228-.234.504-.35.83-.35.325 0 .609.12.85.36.24.241.36.525.36.85z" fill="#666"/></svg>