<svg width="28" height="18" viewBox="0 0 28 18" fill="none" xmlns="http://www.w3.org/2000/svg">
<g clip-path="url(#clip0)">
<path d="M0.0883789 2.48964C0.0883789 1.63461 0.621878 1.17356 1.68888 1.1065L5.8005 1.13165C6.07645 1.13165 6.26041 1.25739 6.3524 1.50887C6.77552 2.76626 7.24923 3.85182 7.77353 4.76552C8.29783 5.67923 8.9831 6.73125 9.82934 7.92159C9.90293 8.07248 10.0225 8.14792 10.1881 8.14792C10.3168 8.14792 10.418 8.08924 10.4916 7.97189L10.5744 7.69526L10.602 3.34467C10.602 3.04289 10.5238 2.84171 10.3674 2.74112C10.2111 2.64052 9.92132 2.56508 9.4982 2.51478C9.16706 2.46449 9.0015 2.28007 9.0015 1.96153C9.0015 1.89447 9.01069 1.84417 9.02909 1.81064C9.41542 0.720899 10.5192 0.176027 12.3405 0.176027L13.8858 0.150879C14.5848 0.150879 15.1643 0.310149 15.6242 0.62869C16.0842 0.94723 16.3141 1.45019 16.3141 2.13757V7.84615C16.4429 7.92997 16.5625 7.97189 16.6728 7.97189C16.9488 7.97189 17.188 7.821 17.3903 7.51922C19.4139 4.93737 20.5085 3.21054 20.6741 2.33875C20.6741 2.32198 20.6925 2.28007 20.7293 2.21301C20.8581 1.96153 21.0696 1.74358 21.364 1.55916C21.6583 1.37474 21.9159 1.24901 22.1366 1.18194C22.2102 1.14841 22.293 1.13165 22.385 1.13165H26.6622L26.9381 1.1568C27.306 1.1568 27.5912 1.31607 27.7935 1.63461C27.8671 1.7352 27.9177 1.84417 27.9453 1.96153C27.9729 2.07889 27.9913 2.19624 28.0005 2.3136C28.0097 2.43096 28.0143 2.49802 28.0143 2.51478V2.69082C27.8855 3.3782 27.559 4.11168 27.0347 4.89126C26.5104 5.67085 25.8435 6.51331 25.0341 7.41863C24.2246 8.32396 23.7187 8.91912 23.5164 9.20413C23.3508 9.40532 23.268 9.58974 23.268 9.75739C23.268 9.89151 23.3416 10.0424 23.4888 10.2101L27.5176 14.8373C27.7384 15.1055 27.8487 15.3989 27.8487 15.7174C27.8487 16.103 27.6832 16.4216 27.352 16.6731C27.0209 16.9245 26.6254 17.0671 26.1655 17.1006L25.6963 17.1257H21.5019C21.4835 17.1257 21.4467 17.1299 21.3916 17.1383C21.3364 17.1467 21.2996 17.1509 21.2812 17.1509C20.8765 17.1509 20.4993 16.9916 20.1498 16.6731C20.021 16.5389 19.1564 15.5498 17.5559 13.7056C17.4639 13.5883 17.3351 13.4793 17.1696 13.3787C17.096 13.6469 16.9994 14.0325 16.8798 14.5355C16.7602 15.0385 16.6728 15.3989 16.6177 15.6169L16.5349 16.0444C16.3509 16.6312 15.9646 16.9832 15.3759 17.1006L14.9896 17.1257H12.2853C10.7584 17.1257 9.23605 16.4887 7.71834 15.2145C6.20062 13.9403 4.83468 12.2931 3.62051 10.2729C2.40634 8.2527 1.27495 5.90137 0.226353 3.21893C0.13437 3.00098 0.0883789 2.75788 0.0883789 2.48964ZM16.6728 9.00295C16.2865 9.00295 15.937 8.90655 15.6242 8.71375C15.3115 8.52095 15.1551 8.25689 15.1551 7.92159V2.13757C15.1551 1.80226 15.0632 1.56335 14.8792 1.42085C14.6952 1.27834 14.3733 1.20709 13.9134 1.20709L12.3405 1.25739C11.5494 1.25739 10.9515 1.38313 10.5468 1.63461C11.3563 1.98668 11.761 2.5567 11.761 3.34467V7.7707C11.7242 8.18983 11.5402 8.53771 11.2091 8.81434C10.8779 9.09097 10.51 9.22928 10.1053 9.22928C9.55339 9.22928 9.13027 8.98618 8.83593 8.49999C7.401 6.52169 6.334 4.64398 5.63493 2.86686L5.38658 2.21301L1.71647 2.18786C1.47732 2.18786 1.34394 2.20044 1.31635 2.22558C1.28875 2.25073 1.27495 2.32198 1.27495 2.43934C1.27495 2.59023 1.29335 2.7495 1.33014 2.91715L1.90964 4.32544C3.45494 7.9635 5.13363 10.8304 6.94568 12.926C8.75774 15.0217 10.5376 16.0695 12.2853 16.0695H15.0448C15.1551 16.0695 15.2379 16.0402 15.2931 15.9815C15.3483 15.9228 15.3943 15.8097 15.4311 15.642L15.4863 15.3905L16.0106 13.1775C16.1577 12.8757 16.2865 12.6745 16.3969 12.574C16.5993 12.3895 16.8384 12.2973 17.1144 12.2973C17.5559 12.2973 18.0066 12.5404 18.4665 13.0266L20.8121 15.7426C20.9592 15.9605 21.1156 16.0695 21.2812 16.0695H25.8343C26.3862 16.0695 26.6622 15.9438 26.6622 15.6923C26.6622 15.6085 26.6346 15.5246 26.5794 15.4408L22.5781 10.889C22.2654 10.537 22.109 10.1598 22.109 9.75739C22.109 9.35502 22.2562 8.96942 22.5505 8.60058C22.7897 8.26528 23.2542 7.70783 23.9441 6.92825C24.6339 6.14866 25.2364 5.41937 25.7515 4.74038C26.2666 4.06138 26.607 3.44526 26.7725 2.892L26.8553 2.56508C26.8369 2.53155 26.8277 2.47706 26.8277 2.40162C26.8277 2.32617 26.8185 2.26331 26.8001 2.21301H22.4678C22.1918 2.3136 21.971 2.46449 21.8055 2.66567L21.6399 3.14348C21.18 4.30029 19.975 6.08579 18.025 8.49999C17.6387 8.8353 17.188 9.00295 16.6728 9.00295Z" fill="#666666"/>
</g>
<defs>
<clipPath id="clip0">
<rect width="28" height="18" fill="white"/>
</clipPath>
</defs>
</svg>
