<?xml version="1.0" encoding="utf-8"?><svg viewBox="0 0 280 280" xmlns="http://www.w3.org/2000/svg" xmlns:xlink="http://www.w3.org/1999/xlink"><style>:root>svg{display:none}:root>svg:target{display:block}</style><svg viewBox="0 0 60 60" id="benef-ico-1" xmlns="http://www.w3.org/2000/svg"><path fill="#68B738" d="M0 0h60v60H0z"/><path d="M42.844 16.767c-.1-.45-.48-.767-.912-.767h-.005c-4.938.033-16.945.916-21.793 8.38-2.518 3.878-2.735 8.913-.644 14.965.016.047.048.079.07.122-.747 1.973-1.037 3.286-1.044 3.323-.11.54.214 1.072.72 1.188a.88.88 0 00.197.022c.433 0 .822-.321.916-.79.02-.102 2.409-10.373 10.854-16.378.431-.306.547-.927.26-1.387-.288-.46-.87-.585-1.3-.277-4.79 3.405-7.739 8.008-9.473 11.656-1.242-4.578-.916-8.377.986-11.305 3.743-5.764 12.622-7.154 17.982-7.448-1.153 1.801-2.413 5.103-2.413 10.929 0 3.12-.83 5.522-2.465 7.14-2.62 2.591-6.88 2.834-9.993 2.584-.518-.045-.967.371-1.006.922-.04.55.347 1.03.863 1.072.623.051 1.29.082 1.981.082 3.17 0 6.87-.663 9.43-3.194 2.034-2.011 3.065-4.906 3.065-8.605 0-9.099 3.216-11.096 3.232-11.105.39-.209.594-.677.492-1.129z" fill="#fff"/></svg><svg viewBox="0 0 60 60" id="benef-ico-2" xmlns="http://www.w3.org/2000/svg"><path fill="#68B738" d="M0 0h60v60H0z"/><path fill="#fff" d="M35.776 31.473c-1.706 0-3.088 1.479-3.088 3.301 0 1.824 1.383 3.302 3.088 3.302 1.706 0 3.088-1.478 3.088-3.302 0-1.823-1.383-3.3-3.088-3.3zm0 5.013c-.884 0-1.6-.766-1.6-1.71 0-.947.716-1.713 1.6-1.713.884 0 1.602.766 1.602 1.712 0 .945-.718 1.711-1.602 1.711zM26.607 12.99c-1.76 0-3.188 1.525-3.188 3.407 0 1.882 1.427 3.407 3.188 3.407 1.76 0 3.187-1.524 3.187-3.407s-1.427-3.407-3.187-3.407zm0 5.476c-1.07 0-1.936-.926-1.936-2.07 0-1.142.866-2.069 1.935-2.069 1.07 0 1.936.927 1.936 2.07 0 1.143-.866 2.069-1.936 2.069zm-3.38 12.144c-1.294 0-2.341 1.12-2.341 2.503s1.047 2.503 2.34 2.503c1.295 0 2.342-1.12 2.342-2.503 0-1.382-1.047-2.503-2.341-2.503zM23 32.5c-.459 0 1.158 1.104 1.158.613 0-.49-1.617.387-1.158.387.459 0 1.057-.877 1.057-.388 0 .49-.598-.612-1.057-.612zm10.5-9.737s3.04-.839 6.178 1.493c.907.76 1.766 1.337 1.152 2.123-.343.34-.637.657-1.716-.524-1.054-.76-2.72-1.898-5.614-1.442-1.128.237-1.961.551-3.555 2.15-1.594 1.598-3.973 2.725-6.498 2.489-2.525-.236-3.849-1.258-5.246-2.542-.294-.42-.294-.865-.123-1.127.171-.262.833-.524 1.201-.132.368.394 2.109 1.966 3.825 2.07 1.716.105 3.433.21 5.737-1.965 2.306-2.174 3.458-2.331 4.66-2.593z"/><mask id="ba"><path d="M43.646 39.816V21.157c0-.578-.374-.65-.524-.655h-.506c-.493 0-.536.557-.538.739v.059c.002 3.609.01 18.253-.002 18.54a2.681 2.681 0 01-.82 1.887c-.809.695-1.618.603-1.618.603s-20.177 0-20.655-.026c-.38-.066-1.042-.21-1.606-1.01-.564-.798-.453-1.847-.453-1.847V21.315c0-.839-.675-.812-.675-.812h-.307c-.536 0-.585.588-.588.776v18.537c0 1.337.454 2.398 1.548 3.337 1.094.939 2.375.856 2.375.856s19.723 0 20.581-.002c.859-.003 1.986-.417 2.916-1.555.93-1.14.872-2.636.872-2.636z"/></mask><path fill="#fff" d="M43.646 39.816V21.157c0-.578-.374-.65-.524-.655h-.506c-.493 0-.536.557-.538.739v.059c.002 3.609.01 18.253-.002 18.54a2.681 2.681 0 01-.82 1.887c-.809.695-1.618.603-1.618.603s-20.177 0-20.655-.026c-.38-.066-1.042-.21-1.606-1.01-.564-.798-.453-1.847-.453-1.847V21.315c0-.839-.675-.812-.675-.812h-.307c-.536 0-.585.588-.588.776v18.537c0 1.337.454 2.398 1.548 3.337 1.094.939 2.375.856 2.375.856s19.723 0 20.581-.002c.859-.003 1.986-.417 2.916-1.555.93-1.14.872-2.636.872-2.636z"/><path d="M43.646 39.816h-20v.387l.015.387 19.985-.774zm-.524-19.314l.71-19.987-.355-.013h-.355v20zm-1.044.739l-20-.15v.15h20zm0 .06h-20v.008l20-.008zm-.002 18.54l-19.985-.758v.013l19.986.745zm-.82 1.887l13.039 15.165.431-.37.41-.396-13.88-14.399zm-1.618.603l2.26-19.872-1.127-.128h-1.133v20zm-20.655-.026l-3.395 19.71 1.133.195 1.149.064 1.113-19.97zm-1.606-1.01L1.033 52.824l.004.006 16.34-11.533zm-.453-1.847l19.89 2.098.11-1.046v-1.052h-20zm-.675-18.945v20h.388l.387-.016-.775-19.984zm-.895.776l-19.998-.288-.002.144v.144h20zm1.548 21.874L3.876 58.33l13.026-15.177zm2.375.856v-20h-.643l-.64.041 1.283 19.96zm23.497-1.557l15.49 12.653.005-.008-15.495-12.645zm20.872-2.636V21.157h-40v18.659h40zm0-18.659c0-4.97-1.859-11.419-7.618-16.084-4.89-3.96-10.03-4.481-12.196-4.558l-1.42 39.974a19.462 19.462 0 01-11.56-4.332c-5.535-4.483-7.206-10.608-7.206-15h40zM43.122.502h-.506v40h.506v-40zm-.506 0a20.47 20.47 0 00-12.283 4.083 20.527 20.527 0 00-6.419 8.034 21.136 21.136 0 00-1.835 8.473l39.999.298c-.006.733-.014 3.914-1.667 7.598a19.474 19.474 0 01-6.096 7.61 19.53 19.53 0 01-11.699 3.904v-40zM22.078 21.241v.051h40v-.05h-40zm0 .05v.011h40v-.01h-40zm0 .018l.004 10.511a8664.752 8664.752 0 01-.002 7.252c-.002.788-.006.45.01.011L62.063 40.6c.02-.51.018-1.37.018-1.45l.002-1.807v-5.529c0-4.15-.003-8.719-.004-10.52l-40 .016zm.012 17.787c.05-1.35.384-7.042 5.285-11.766l27.761 28.797c6.396-6.166 6.852-13.536 6.927-15.54L22.09 39.096zm6.126-12.532a17.512 17.512 0 017.807-3.844 17.955 17.955 0 014.628-.362 19.312 19.312 0 011.172.093l.037.004.019.002c.01.001.019.002-2.241 19.874-2.26 19.872-2.25 19.873-2.241 19.874l.018.003a42.98 42.98 0 00.269.028 20.68 20.68 0 002.597.093 22.044 22.044 0 003.983-.468 22.487 22.487 0 0010.03-4.968l-26.078-30.33zM39.638 42.33v-20h-3.156a17380.765 17380.765 0 01-14.032-.01l-2.357-.007c-1.071-.005-.613-.013.002.022L17.87 62.274c.97.054 7.17.051 11.606.054l6.997.003h3.164v-20zM22.377 22.595c.432.074 2.526.427 4.938 1.653a17.618 17.618 0 016.401 5.514L1.037 52.83c4.995 7.076 11.877 8.725 14.551 9.186l6.789-39.42zm11.344 7.174c2.348 3.33 2.908 6.508 3.08 7.954a16.586 16.586 0 01.049 3.439 18.522 18.522 0 01-.027.29l-.005.047-.002.024-.002.011c0 .006 0 .012-19.89-2.086s-19.89-2.092-19.891-2.086l-.002.012-.002.024a19.88 19.88 0 00-.069.827 23.438 23.438 0 00.117 4.197c.257 2.17 1.043 6.272 3.956 10.401L33.72 29.768zm3.203 9.68V21.314h-40v18.133h40zm0-18.134c0-6.89-3.412-14.004-10.265-17.999A20.69 20.69 0 0015.5.516c-.013.001-.025.002.75 19.987.776 19.984.763 19.985.751 19.986h-.024l-.05.002a28.228 28.228 0 01-.3.008 19.363 19.363 0 01-17.35-10.06 19.028 19.028 0 01-2.352-9.124h40zM16.248.503h-.307v40h.307v-40zm-.307 0c-4.037 0-8.32 1.191-12.061 3.905a20.562 20.562 0 00-6.553 7.946 21.167 21.167 0 00-1.972 8.637l39.996.577c-.011.758-.045 3.996-1.784 7.718a19.438 19.438 0 01-6.2 7.5 19.477 19.477 0 01-11.426 3.717v-40zM-4.646 21.279v18.537h40V21.279h-40zm0 18.537c0 7.063 2.92 13.705 8.522 18.514l26.051-30.354c1.295 1.111 2.855 2.871 3.994 5.373a15.716 15.716 0 011.433 6.467h-40zM3.877 58.33a23.586 23.586 0 0010.48 5.17 23.615 23.615 0 005.087.51 21.336 21.336 0 00.991-.034l.063-.004.03-.002h.016c.008-.001.016-.002-1.267-19.96C17.994 24.05 18 24.05 18.009 24.05l.015-.002.03-.001.062-.004a16.029 16.029 0 01.372-.018 18.5 18.5 0 011.583.008c.737.037 1.607.13 2.571.334 1.88.398 4.642 1.34 7.285 3.609L3.877 58.33zm15.4-14.32v20h3.095l6.875-.001c5.007 0 10.202 0 10.668-.002l-.113-40H38.72l-2.443.001-7.033.001h-9.967v20zm20.638 19.997c7.104-.02 13.8-3.336 18.348-8.903L27.286 29.8c2.686-3.29 7.128-5.777 12.516-5.792l.113 40zm18.354-8.91c3.245-3.977 4.434-8.096 4.913-10.529a24.742 24.742 0 00.464-4.58 21.801 21.801 0 00-.015-.934c0-.006 0-.013-19.985.762-19.985.774-19.986.767-19.986.761v-.013l-.001-.025-.002-.05a17.128 17.128 0 01.016-1.569c.033-.576.105-1.28.262-2.075.275-1.4 1.028-4.201 3.344-7.039l30.99 25.291z" mask="url(#ba)"/></svg><svg viewBox="0 0 60 60" id="benef-ico-3" xmlns="http://www.w3.org/2000/svg"><path fill="#68B738" d="M0 0h60v60H0z"/><path fill-rule="evenodd" clip-rule="evenodd" d="M36.617 15.076a1 1 0 011.09.217c.909.908 2.097 2.878 3.059 5.918C41.737 24.28 42.5 28.508 42.5 34a1 1 0 01-1 1H38v9a1 1 0 11-2 0V16a1 1 0 01.617-.924zM38 33h2.491c-.086-4.816-.786-8.512-1.632-11.186-.278-.88-.57-1.642-.859-2.295V33zM24 15a1 1 0 011 1v28a1 1 0 11-2 0V16a1 1 0 011-1z" fill="#fff"/><path fill-rule="evenodd" clip-rule="evenodd" d="M19.5 15a1 1 0 011 1v5.5c0 .557.192 1.315.7 1.917.48.566 1.315 1.083 2.8 1.083a1 1 0 110 2c-2.015 0-3.43-.733-4.326-1.792A5.068 5.068 0 0118.5 21.5V16a1 1 0 011-1z" fill="#fff"/><path fill-rule="evenodd" clip-rule="evenodd" d="M28.5 15a1 1 0 00-1 1v5.5a3.07 3.07 0 01-.7 1.917c-.48.566-1.315 1.083-2.8 1.083a1 1 0 000 2c2.014 0 3.43-.733 4.326-1.792A5.068 5.068 0 0029.5 21.5V16a1 1 0 00-1-1z" fill="#fff"/></svg><svg viewBox="0 0 60 60" id="benef-ico-4" xmlns="http://www.w3.org/2000/svg"><path fill="#68B738" d="M0 0h60v60H0z"/><ellipse cx="35.204" cy="24.33" rx="1.087" ry="1.085" fill="#fff"/><ellipse cx="24.331" cy="24.33" rx="1.087" ry="1.085" fill="#fff"/><ellipse cx="24.331" cy="37.351" rx="1.087" ry="1.085" fill="#fff"/><ellipse cx="29.768" cy="39.522" rx="1.087" ry="1.085" fill="#fff"/><ellipse cx="21.069" cy="30.775" rx="1.087" ry="1.085" fill="#fff"/><ellipse cx="38.466" cy="30.775" rx="1.087" ry="1.085" fill="#fff"/><ellipse cx="35.204" cy="37.351" rx="1.087" ry="1.085" fill="#fff"/><mask id="da" fill="#fff"><path fill-rule="evenodd" clip-rule="evenodd" d="M34.922 42.058a1.058 1.058 0 011.217.196l1.825 1.875a.682.682 0 00.977-.95l-1.357-1.394c-.426-.438-.361-1.15.098-1.552C40.324 37.92 42 34.47 42 30.615 42 23.648 36.523 18 29.768 18c-6.756 0-12.232 5.648-12.232 12.614 0 3.815 1.641 7.234 4.236 9.547.452.403.513 1.11.09 1.544l-1.434 1.473a.681.681 0 10.976.951l1.88-1.93a1.058 1.058 0 011.226-.191 11.878 11.878 0 005.258 1.221c1.841 0 3.587-.42 5.154-1.17zm-5.154-.23c6.005 0 10.873-5.02 10.873-11.214 0-6.192-4.868-11.212-10.873-11.212-6.005 0-10.873 5.02-10.873 11.212 0 6.193 4.868 11.213 10.873 11.213zm-.76-11.53V22.94a.781.781 0 111.563 0v8.183c0 .443-.36.803-.803.803a.76.76 0 01-.76-.76v-.868z"/></mask><path d="M23.284 42.199l2.866 2.79-2.866-2.79zm1.226-.191l1.765-3.59-1.765 3.59zm-3.106 2.121l-2.866-2.79 2.866 2.79zm-.976-.95l2.865 2.79-2.865-2.79zm17.156-1.394l-2.865 2.79 2.865-2.79zm.098-1.552l-2.636-3.009 2.636 3.01zm-15.91-.072l-2.662 2.985 2.662-2.985zm.09 1.544l-2.866-2.79 2.866 2.79zm17.079 1.473l2.866-2.79-2.866 2.79zm-.977.951l2.866-2.79-2.866 2.79zm-1.825-1.875l-2.866 2.79 2.865-2.79zm-1.218-.196l-1.73-3.606 1.73 3.606zm-1.648 2.987l1.826 1.875 5.731-5.581-1.826-1.875-5.731 5.58zm8.534-4.658l-1.357-1.393-5.731 5.582 1.356 1.393 5.732-5.582zm-1.49 2.855C43.808 40.186 46 35.647 46 30.615h-8c0 2.676-1.16 5.038-2.953 6.61l5.27 6.017zM46 30.615C46 21.554 38.848 14 29.768 14v8C34.199 22 38 25.74 38 30.614h8zM29.768 14c-9.08 0-16.232 7.555-16.232 16.614h8c0-4.874 3.8-8.614 8.232-8.614v-8zM13.536 30.614c0 4.98 2.147 9.477 5.574 12.532l5.324-5.97c-1.762-1.572-2.898-3.913-2.898-6.562h-8zm5.46 8.3l-1.434 1.473 5.731 5.582 1.434-1.473-5.73-5.581zm5.274 8.006l1.88-1.93-5.732-5.582-1.88 1.93 5.732 5.582zm-1.525-1.323a15.878 15.878 0 007.023 1.632v-8a7.879 7.879 0 01-3.493-.811l-3.53 7.18zm7.023 1.632c2.456 0 4.792-.56 6.884-1.565l-3.46-7.212a7.886 7.886 0 01-3.424.777v8zm0-1.402c8.33 0 14.873-6.928 14.873-15.212h-8c0 4.1-3.192 7.212-6.873 7.212v8zM44.64 30.615c0-8.285-6.544-15.213-14.873-15.213v8c3.68 0 6.873 3.112 6.873 7.212h8zM29.768 15.402c-8.33 0-14.873 6.928-14.873 15.213h8c0-4.101 3.192-7.213 6.873-7.213v-8zM14.895 30.615c0 8.284 6.544 15.212 14.873 15.212v-8c-3.68 0-6.873-3.112-6.873-7.212h-8zm11.676-.317v.543h8v-.543h-8zm0 .543v.282h8v-.282h-8zm6.437.325v-.325h-8v.325h8zm0-.325v-.543h-8v.543h8zm0-.543V26.5h-8v3.798h8zm0-3.798v-3.56h-8v3.56h8zm-6.437-3.56v3.56h8v-3.56h-8zm0 3.56v3.798h8V26.5h-8zm3.218-8.34a4.781 4.781 0 00-4.78 4.78h8a3.219 3.219 0 01-3.22 3.22v-8zm-3.218 12.963a3.197 3.197 0 013.197-3.197v8a4.803 4.803 0 004.803-4.803h-8zm-.422 13.867a2.943 2.943 0 01-3.404.607l3.53-7.179c-1.826-.898-4.227-.683-5.857.99l5.732 5.582zm-8.587 1.93a4.682 4.682 0 006.708 0l-5.732-5.581a3.318 3.318 0 014.755 0l-5.731 5.58zm0-6.533a4.681 4.681 0 000 6.533l5.731-5.581a3.318 3.318 0 010 4.63l-5.731-5.582zm22.888-1.393c1.343 1.38.944 3.305-.133 4.248l-5.27-6.018c-1.995 1.748-2.523 5.098-.328 7.352l5.731-5.582zM29.79 26.16a3.219 3.219 0 01-3.22-3.22h8a4.78 4.78 0 00-4.78-4.78v8zM19.11 43.146c-1.064-.948-1.447-2.862-.114-4.231l5.731 5.581c2.18-2.238 1.675-5.565-.293-7.32l-5.324 5.97zm22.697 3.774a4.682 4.682 0 000-6.533l-5.732 5.582a3.318 3.318 0 010-4.63l5.732 5.58zm-6.708 0a4.682 4.682 0 006.708 0l-5.732-5.581a3.318 3.318 0 014.755 0l-5.731 5.58zm-5.331-18.994a3.24 3.24 0 013.24 3.24h-8a4.76 4.76 0 004.76 4.76v-8zm9.236 11.538c-1.616-1.66-3.992-1.886-5.813-1.012l3.46 7.212a2.943 2.943 0 01-3.378-.62l5.731-5.58z" fill="#fff" mask="url(#da)"/><path fill="#fff" d="M29 19v-4h1.5v4z"/><rect x="22" y="15" width="15.5" height="1.5" rx=".75" fill="#fff"/></svg><svg viewBox="0 0 24 18" id="burger-menu" xmlns="http://www.w3.org/2000/svg"><path stroke="#000" stroke-width="1.5" d="M0 1.25h24m-24 8h24m-24 8h24"/></svg><svg viewBox="0 0 280 280" id="cat-pro" xmlns="http://www.w3.org/2000/svg"><circle cx="140" cy="140" r="100" fill="#68B738"/><path d="M250.2 95.6a30.402 30.402 0 019-9.2c2-1.4 3.2-1.4 4.4 1.2 1.6 3.8 3 7.8 1.8 12a4.577 4.577 0 00.8 4.2c1.2 1.6 2.2 3.2 3.2 4.6a12.54 12.54 0 011.8 12.4 10.865 10.865 0 00-.4 6.2c.4 1.98.4 4.02 0 6a7.502 7.502 0 01-5.4 6.4 10.424 10.424 0 00-6.4 4 2.104 2.104 0 01-1.8 1c-2.4.4-8.4-5-8.4-7.4v-1.2c.2-7.2-.2-7.8-6.8-10.8a8.779 8.779 0 01-3.6-2.4c-1.2-1.6-2.8-1.4-4.6-.8-1.8.6-2.8 1.8-2.6 3.8.603 4.842.804 9.725.6 14.6.013.556.15 1.103.4 1.6 6.2 9 8.6 19.6 11.6 29.8 2.4 7.8 6.8 12 14.8 12.6 1.28.102 2.551.303 3.8.6a8.322 8.322 0 016.8 6.4c1.4 4.2.6 5.2-3.6 5.2h-13a6.481 6.481 0 01-4.6-1.6 23.413 23.413 0 00-6.8-4 14.525 14.525 0 01-6.8-5.2 57.213 57.213 0 00-8-9c-5.6-5.8-11.6-11.4-16.8-17.4a22.758 22.758 0 01-6.4-15.2c0-1.8-.4-2.6-2.4-1.8a3.865 3.865 0 01-2 .6c-5.6 0-8.4 3.4-10.4 8.4-1.8 4.2-4.2 8.2-6.4 12.4a20.786 20.786 0 00-2 8.4c0 4.8 1.2 6.4 5.6 8 2.8 1 5.4 2 6.8 4.8 1.6 3.2 1.2 4-2.2 4.2h-13.6a3.763 3.763 0 01-3.8-2.2l-3.6-6a12.103 12.103 0 01-1.4-10.8c.866-3.473.934-7.097.2-10.6a16.841 16.841 0 013.4-14c1.2-1.4 1.2-2-.8-2.4a100.105 100.105 0 01-23.6-8.2.197.197 0 01-.141-.059.197.197 0 01-.059-.141c-6.4-2.4-7.6-2-9.4 4.6-1.6 5.6-3.2 11.2-4.4 17-1.4 6.4.2 12.4 2.2 18.4.8 2.4 3.2 2.2 5 2.8 4 1.2 7.4 2.8 9 7 1.4 3.2 1.2 3.6-2.2 3.6-3.4 0-6.8-.2-10.4 0a13.278 13.278 0 01-8.4-2.8c-9.6-6.4-12.4-16.2-13.2-26.8-.4-6.6-4-11.8-8.2-16.8-.8-1-1.6-1.4-2.8-.6a88.649 88.649 0 01-13.4 6 53.421 53.421 0 00-24.4 17.6 21.26 21.26 0 00-4.4 10.2c-.6 3.6.4 5.2 4 6.2s5.4 3 5.8 6.8c.2 1.6-.4 2.4-2 2.4H53.4a3.308 3.308 0 01-2.6-1.6 17.121 17.121 0 01-3.8-11c-.105-6.91.498-13.813 1.8-20.6a12.594 12.594 0 016.8-9.6c11.8-5.6 18-16.2 23.6-27.2 1.2-2.2.2-2.6-1.8-2.4a32.94 32.94 0 00-15.4 6.4 141.256 141.256 0 00-16.6 14.2 33.343 33.343 0 01-20.6 9.8c-14.6.8-21.4-7.4-20.8-20.6a19.378 19.378 0 014.8-12.2 8.504 8.504 0 019-3c3 .8 3.8 2.4 2.6 5.4-.6 1.2-1.4 2.2-2 3.4a15 15 0 00-2 4c-2.2 6 .8 10.2 7 10.8 6.6.6 12-2.2 17-6.2a89.903 89.903 0 0016-16.6A41.579 41.579 0 0185.2 97c4.6-.6 8.6-2.6 13-3.8a83.02 83.02 0 0125.4-3.6 26.001 26.001 0 0011.6-2.2c9.8-4 20-4 30.2-2 8 1.6 16 3.6 23.8 5.6a33.16 33.16 0 0014-.4 135.58 135.58 0 0126.8-4 36.32 36.32 0 0117.2 3.4c4 1.8 4 1.8 3 5.6z"/></svg><svg viewBox="0 0 280 280" id="cat-slim" xmlns="http://www.w3.org/2000/svg"><circle cx="140" cy="140" r="100" fill="#68B738"/><path d="M179.68 29h-.76a6.956 6.956 0 00-2.92 3.147 30.524 30.524 0 00-2.58 6.75 3.214 3.214 0 01-1.022 1.827c-.535.48-1.217.77-1.938.825a14.755 14.755 0 00-6.105 2.543 14.57 14.57 0 00-4.355 4.94 53.806 53.806 0 00-3.7 7.917c-2.84 7.284-5.02 14.806-7.7 22.15-1.26 3.344-1.32 3.344-5.12 3.344-4.54 0-4.22-.692-4.28 4.256 0 1.564.48 2.355 2.16 2.276.52 0 1.3-.257 1.5.416.2.673-.48.97-.88 1.366a18.045 18.045 0 01-8.66 4.83c-3.8 1.009-7.68 1.8-11.38 3.028-9.5 3.147-18.28 7.541-25.12 14.984a55.305 55.305 0 00-9.48 15.518c-7.34 17.102-10.9 35.114-13.66 53.305-1.3 8.531-2.22 17.102-2.92 25.732C70.4 212.39 70 216.685 70 221h66.66a4.278 4.278 0 00-.46-2.534 9.9 9.9 0 00-3.025-4.032 10.039 10.039 0 00-4.635-2.044c-1.4-.317-1.56-.733-.7-1.821a20.41 20.41 0 003.18-6.136c3.26-9.521 4.52-19.458 6.1-29.295a58.966 58.966 0 016.88-21.437 42.908 42.908 0 0111.18-12.609c1.66-1.247 1.72-1.247 2 .871.2 1.406.24 2.851.34 4.276.6 9.351.48 18.734-.36 28.067a120.805 120.805 0 00-.3 21.774A147.413 147.413 0 00161.4 221H188a10.665 10.665 0 00-2.858-5.7 10.85 10.85 0 00-5.622-3.088 18.173 18.173 0 00-7.52.395c-1.2.278-1.7 0-1.8-1.286a110.44 110.44 0 012-31.314 348.463 348.463 0 006.12-35.985 34.886 34.886 0 014.56-13.856c2.38-4.196 4.46-8.551 6.8-12.767a11.506 11.506 0 00.84-10.273c-.54-1.405-1.06-2.83-1.72-4.176-2-3.86-4-7.68-5.84-11.58-.98-1.98-.76-2.217 1.42-2.276 3.26 0 3.26 0 3.32-3.246V84.54c0-1.365-.52-2.117-2-1.979h-3.04c-1.38 0-1.78-.574-1.44-1.98a12.342 12.342 0 013.822-5.882 12.54 12.54 0 016.438-2.886 44.446 44.446 0 0113.24.851 2.017 2.017 0 001.512-.126c.468-.237.823-.647.988-1.14.8-1.98 1.68-3.96 2.58-5.939a1.96 1.96 0 00-.2-2.256c-6.4-8.037-13.34-15.538-22.8-20.348a2.973 2.973 0 01-1.165-.887 2.939 2.939 0 01-.595-1.33 38.465 38.465 0 00-2.54-8.235A6.944 6.944 0 00179.68 29z"/></svg><svg fill="none" viewBox="0 0 30 30" id="checkbox" xmlns="http://www.w3.org/2000/svg"><path stroke="#CDCDCD" d="M.5.5h29v29H.5z"/></svg><svg fill="none" viewBox="0 0 30 30" id="checkbox-active" xmlns="http://www.w3.org/2000/svg"><path d="M13 19.718L7.3 13.27l-1.05 1.187L13 22.094 24.25 9.366 23.2 8.094 13 19.718z" fill="#68B738"/></svg><svg viewBox="0 0 20 20" id="close-menu" xmlns="http://www.w3.org/2000/svg"><path transform="matrix(.68659 -.72705 .68659 .72705 2.002 20)" stroke="#000" stroke-width="1.5" d="M0-.75h24.758"/><path transform="matrix(.68659 .72705 -.68659 .72705 1 2)" stroke="#000" stroke-width="1.5" d="M0-.75h24.758"/></svg><svg fill="none" viewBox="0 0 15 29" id="facebook" xmlns="http://www.w3.org/2000/svg"><path fill-rule="evenodd" clip-rule="evenodd" d="M5.96 2.365C7.147.99 8.78.2 10.5.2H14a.55.55 0 01.55.55v5.393a.55.55 0 01-.55.55h-3.5a.544.544 0 00-.409.205.912.912 0 00-.208.593v3.495H14a.55.55 0 01.538.666l-1.167 5.394a.55.55 0 01-.538.433h-2.95v10.236a.55.55 0 01-.55.55H4.667a.55.55 0 01-.55-.55V17.48h-2.95a.55.55 0 01-.55-.55v-5.393a.55.55 0 01.55-.55h2.95V7.491c0-1.91.656-3.755 1.842-5.126zM10.5 1.3c-1.373 0-2.71.63-3.709 1.785C5.79 4.242 5.217 5.825 5.217 7.49v4.045a.55.55 0 01-.55.55h-2.95v4.293h2.95a.55.55 0 01.55.55v10.236h3.566V16.93a.55.55 0 01.55-.55h3.057l.928-4.293H9.333a.55.55 0 01-.55-.55V7.491c0-.48.165-.953.476-1.313a1.643 1.643 0 011.241-.585h2.95V1.3H10.5z" fill="#666"/></svg><svg fill="#fff" viewBox="0 0 78 80" id="gift" xmlns="http://www.w3.org/2000/svg"><path d="M64.016 34.713H14.03c-1.754 0-3.182-1.418-3.182-3.16v-9.469c0-1.742 1.428-3.16 3.182-3.16h49.984c1.754 0 3.18 1.418 3.18 3.16v9.47c0 1.741-1.426 3.159-3.18 3.159zM14.03 21.346a.751.751 0 00-.744.738v9.47c0 .406.334.737.744.737h49.984a.74.74 0 00.743-.738v-9.469a.75.75 0 00-.743-.738H14.03zM57.045 67.15H20.999c-3.377 0-6.125-2.73-6.125-6.087V33.502c0-.669.546-1.211 1.219-1.211s1.219.542 1.219 1.21v27.562c0 2.02 1.654 3.664 3.687 3.664h36.046c2.032 0 3.686-1.644 3.686-3.664V33.502c0-.669.546-1.211 1.219-1.211.672 0 1.218.542 1.218 1.21v27.562c0 3.356-2.747 6.086-6.123 6.086zm-18.022 0a1.215 1.215 0 01-1.22-1.212V33.502c0-.669.547-1.211 1.22-1.211.672 0 1.218.542 1.218 1.21v32.436c0 .67-.545 1.212-1.218 1.212zM23.811 21.342c-3.814-2.054-5.238-6.809-3.173-10.6 2.064-3.79 6.848-5.205 10.665-3.155 5.814 3.13 8.954 11.86 9.084 12.23l-2.3.804c-.029-.082-2.961-8.221-7.944-10.903-2.635-1.416-5.937-.439-7.36 2.177-1.426 2.617-.444 5.9 2.19 7.317l-1.162 2.13zm30.42 0l-1.16-2.13a5.376 5.376 0 002.622-3.208 5.327 5.327 0 00-.431-4.109 5.382 5.382 0 00-3.226-2.604 5.426 5.426 0 00-4.134.427c-4.982 2.681-7.915 10.82-7.944 10.902l-2.3-.803c.131-.37 3.27-9.1 9.084-12.23a7.859 7.859 0 015.99-.617 7.8 7.8 0 014.674 3.772 7.72 7.72 0 01.623 5.952 7.788 7.788 0 01-3.798 4.648zm7.719 29.59H16.093a1.215 1.215 0 01-1.219-1.211c0-.669.546-1.211 1.219-1.211H61.95c.672 0 1.218.542 1.218 1.21 0 .67-.545 1.212-1.218 1.212z"/></svg><svg viewBox="0 0 60 60" id="htmlacademy" xmlns="http://www.w3.org/2000/svg"><path fill="#666" d="M30.2 5H30L10.3 7.1v36.2L30 55l19.7-11.7V7.1L30.2 5zm17 36.8L30 52 12.8 41.8V27l17.1 10.2V39l-11.7-7v1.8L30 40.9v1.9l-11.8-7v1.8l11.8 7 11.9-7.1v-7.6l5.3-3.2v15.1zm-.1-17l-4.7 2.8-2.2 1.3-10.3-6.1v1.8l8.8 5.3h-.1l-.2.1-1.3.7-7.3-4.3v1.8l5.8 3.4-1.4.9-4.3-2.6v1.8l2.9 1.7-2.9 1.7-17-10.1 17-10.2 17.2 10zm.1-1.8L29.9 12.8 12.8 23V9.4L30 7.6l17.2 1.8V23z"/></svg><svg viewBox="0 0 32 12" id="icon-arrow" xmlns="http://www.w3.org/2000/svg"><path stroke="#000" stroke-width="2" d="M0 6h26"/><path d="M32 6l-6.75 5.196V.804L32 6z"/></svg><svg fill="none" viewBox="0 0 23 23" id="instagram" xmlns="http://www.w3.org/2000/svg"><path d="M11.477.09c1.917 0 3.482.022 4.695.067 1.033.045 1.954.225 2.763.54.778.299 1.452.733 2.021 1.302a5.732 5.732 0 011.303 2.022c.314.808.494 1.729.539 2.762.045 1.213.067 2.778.067 4.694 0 1.917-.022 3.482-.067 4.695-.045 1.033-.225 1.954-.54 2.763a5.733 5.733 0 01-1.302 2.021 5.733 5.733 0 01-2.021 1.303c-.809.314-1.73.494-2.763.539-1.213.045-2.778.067-4.695.067-1.916 0-3.48-.022-4.694-.067-1.033-.045-1.954-.225-2.762-.54a5.732 5.732 0 01-2.022-1.302 5.733 5.733 0 01-1.303-2.021c-.314-.809-.494-1.73-.539-2.763a131.868 131.868 0 01-.067-4.695c0-1.916.022-3.48.067-4.694.045-1.033.225-1.954.54-2.762.299-.78.733-1.453 1.302-2.022A5.731 5.731 0 014.021.696C4.829.382 5.75.202 6.783.157 7.996.112 9.561.09 11.477.09zm0 1.482c-1.991 0-3.616.023-4.873.068a7.21 7.21 0 00-2.247.426c-1.078.45-1.841 1.213-2.29 2.291a7.21 7.21 0 00-.427 2.247 142.032 142.032 0 00-.068 4.873c0 1.992.023 3.617.068 4.875a7.21 7.21 0 00.426 2.246c.45 1.078 1.213 1.841 2.291 2.29a7.211 7.211 0 002.247.427c1.257.045 2.882.068 4.873.068 1.992 0 3.617-.023 4.875-.068a7.211 7.211 0 002.246-.426c1.078-.45 1.841-1.213 2.29-2.291a7.211 7.211 0 00.427-2.246c.045-1.258.068-2.883.068-4.875 0-1.991-.023-3.616-.068-4.873a7.211 7.211 0 00-.426-2.247c-.45-1.078-1.213-1.841-2.291-2.29a7.21 7.21 0 00-2.246-.427 142.035 142.035 0 00-4.875-.068zm0 14.465c1.258 0 2.333-.445 3.224-1.336.89-.891 1.336-1.966 1.336-3.224 0-1.257-.445-2.332-1.336-3.223-.891-.89-1.966-1.336-3.224-1.336-1.257 0-2.332.445-3.223 1.336-.89.891-1.336 1.966-1.336 3.223 0 1.258.445 2.333 1.336 3.224.891.89 1.966 1.336 3.223 1.336zm0-10.4c1.618 0 2.995.57 4.133 1.708s1.707 2.515 1.707 4.132c0 1.618-.569 2.995-1.707 4.133-1.138 1.138-2.515 1.707-4.133 1.707-1.617 0-2.994-.569-4.132-1.707-1.138-1.138-1.707-2.515-1.707-4.133 0-1.617.569-2.994 1.707-4.132 1.138-1.138 2.515-1.707 4.132-1.707zm7.458-.224c0 .374-.135.693-.405.955s-.599.393-.988.393a1.3 1.3 0 01-.955-.393 1.3 1.3 0 01-.393-.955c0-.39.131-.719.393-.988.262-.27.58-.404.955-.404.374 0 .7.138.977.415.277.277.416.603.416.977z" fill="#666"/></svg><svg fill="none" viewBox="0 0 20 20" id="mail" xmlns="http://www.w3.org/2000/svg"><path stroke="#222" stroke-width="1.3" d="M1.65 8.848v8m17-8v8M1 16.198h18m-18-12h18m-.65 1.832L10 12.524 1.65 6.03V4.498h16.7V6.03z"/></svg><svg viewBox="0 0 30 30" id="plus" xmlns="http://www.w3.org/2000/svg"><path stroke="#D3D3D3" stroke-width="2" d="M15 0v30m15-15H0"/></svg><svg fill="none" viewBox="0 0 30 31" id="radiobutton" xmlns="http://www.w3.org/2000/svg"><path d="M29.5 15.274c0 8.039-6.494 14.552-14.5 14.552-8.007 0-14.5-6.513-14.5-14.552C.5 7.236 6.993.723 15 .723c8.006 0 14.5 6.513 14.5 14.551z" stroke="#CDCDCD"/></svg><svg fill="none" viewBox="0 0 30 31" id="radiobutton-active" xmlns="http://www.w3.org/2000/svg"><ellipse cx="15" cy="15.274" rx="6.75" ry="6.773" fill="#68B738"/></svg><svg viewBox="0 0 20 20" id="telephone" xmlns="http://www.w3.org/2000/svg"><path d="M17.9 9.753H9.4v1.204h8.5l-2.1 2.107.9.903 3.1-3.11a.754.754 0 000-.904l-3.1-3.11-.9.903 2.1 2.007zM8.1 19.787v-6.221a.653.653 0 00-.6-.602H3.1a1.226 1.226 0 001.2 1.204h2.5v5.017H3.1a1.784 1.784 0 01-1.728-1.02 1.801 1.801 0 01-.172-.686V3.431a1.78 1.78 0 01.483-1.25A1.767 1.767 0 012.9 1.624h3.9v5.017H4.4a1.218 1.218 0 00-1.2 1.204h4.4a.649.649 0 00.6-.602V.923A.863.863 0 007.5.32H3.1a2.99 2.99 0 00-2.151.81A3.01 3.01 0 000 3.23v13.948a2.91 2.91 0 00.772 2.192 2.89 2.89 0 002.128.919h4.6a.499.499 0 00.6-.502z"/></svg><svg fill="none" viewBox="0 0 28 18" id="vkontakte" xmlns="http://www.w3.org/2000/svg"><g clip-path="url(#uclip0)"><path d="M.088 2.49c0-.855.534-1.316 1.6-1.384l4.113.026c.275 0 .46.125.551.377.424 1.257.897 2.343 1.422 3.257.524.913 1.21 1.965 2.055 3.156.074.15.194.226.36.226.128 0 .229-.059.303-.176l.082-.277.028-4.35c0-.302-.078-.503-.235-.604-.156-.1-.446-.176-.869-.226-.33-.05-.496-.235-.496-.553 0-.068.009-.118.027-.151C9.415.72 10.52.176 12.341.176l1.545-.025c.699 0 1.278.16 1.738.478.46.318.69.821.69 1.509v5.708a.669.669 0 00.359.126c.276 0 .515-.151.717-.453 2.024-2.582 3.119-4.308 3.284-5.18 0-.017.018-.059.055-.126.13-.251.34-.47.635-.654.294-.184.552-.31.773-.377a.593.593 0 01.248-.05h4.277l.276.025c.368 0 .653.16.856.478.073.1.124.21.151.327.028.117.046.234.055.352.01.117.014.184.014.2v.177c-.128.687-.455 1.42-.98 2.2-.524.78-1.19 1.622-2 2.528-.81.905-1.315 1.5-1.518 1.785-.165.201-.248.386-.248.553 0 .135.074.285.22.453l4.03 4.627c.22.268.33.562.33.88 0 .386-.165.705-.496.956a2.177 2.177 0 01-1.186.428l-.47.025h-4.194a.92.92 0 00-.11.012.924.924 0 01-.11.013c-.405 0-.783-.16-1.132-.478-.129-.134-.994-1.123-2.594-2.967a1.422 1.422 0 00-.386-.327c-.074.268-.17.654-.29 1.157-.12.503-.207.863-.262 1.08l-.083.428c-.184.587-.57.94-1.16 1.057l-.385.025h-2.705c-1.527 0-3.049-.637-4.567-1.912-1.517-1.274-2.883-2.92-4.097-4.941C2.406 8.253 1.275 5.9.226 3.219a1.858 1.858 0 01-.138-.73zm16.585 6.513c-.386 0-.736-.096-1.049-.29-.313-.192-.469-.456-.469-.791V2.138c0-.336-.092-.575-.276-.717-.184-.143-.506-.214-.966-.214l-1.572.05c-.792 0-1.39.126-1.794.378.81.352 1.214.922 1.214 1.71V7.77c-.037.419-.22.767-.552 1.043a1.68 1.68 0 01-1.104.415c-.552 0-.975-.243-1.27-.729-1.434-1.978-2.501-3.856-3.2-5.633l-.248-.654-3.67-.025c-.24 0-.373.012-.4.038-.028.025-.042.096-.042.213 0 .151.018.31.055.478l.58 1.408c1.545 3.638 3.224 6.505 5.036 8.601 1.812 2.096 3.592 3.144 5.34 3.144h2.759c.11 0 .193-.03.248-.088.055-.06.101-.172.138-.34l.055-.252.525-2.213c.147-.301.276-.502.386-.603a1.03 1.03 0 01.717-.277c.442 0 .893.243 1.352.73l2.346 2.716c.147.217.304.327.47.327h4.552c.552 0 .828-.126.828-.378a.455.455 0 00-.083-.251l-4-4.552c-.314-.352-.47-.73-.47-1.132 0-.402.147-.788.441-1.156.24-.336.704-.893 1.394-1.673s1.292-1.509 1.808-2.188c.515-.679.855-1.295 1.02-1.848l.083-.327a.359.359 0 01-.027-.163.554.554 0 00-.028-.189h-4.332c-.276.1-.497.251-.663.453l-.165.477C21.18 4.3 19.975 6.086 18.025 8.5a1.999 1.999 0 01-1.352.503z" fill="#666"/></g><defs><clipPath id="uclip0"><path fill="#fff" d="M0 0h28v18H0z"/></clipPath></defs></svg></svg>